<svg width="16" height="16" viewBox="0 0 16 16" fill="none" xmlns="http://www.w3.org/2000/svg">
<circle cx="8" cy="8" r="8" fill="#D9D9D9"/>
<path d="M12.6163 5.66244C12.2194 5.90542 11.8907 6.24511 11.6609 6.64973C11.431 7.05434 11.3076 7.51066 11.3022 7.97596C11.3037 8.49966 11.4589 9.0114 11.7484 9.44778C12.0379 9.88417 12.4491 10.226 12.931 10.431C12.741 11.0441 12.4598 11.625 12.0969 12.1543C11.5776 12.9019 11.0346 13.6494 10.2084 13.6494C9.38216 13.6494 9.16966 13.1694 8.21751 13.1694C7.28898 13.1694 6.95846 13.6652 6.20304 13.6652C5.44761 13.6652 4.92045 12.9727 4.3145 12.1229C3.5141 10.9323 3.07421 9.53615 3.04761 8.10183C3.04761 5.74114 4.58208 4.49002 6.09286 4.49002C6.89553 4.49002 7.56441 5.01718 8.06803 5.01718C8.54803 5.01718 9.29561 4.45848 10.2084 4.45848C10.6777 4.44637 11.1428 4.54985 11.5627 4.7598C11.9826 4.96975 12.3444 5.27973 12.6163 5.66244ZM9.77561 3.45916C10.178 2.98584 10.4057 2.38878 10.4209 1.76774C10.4215 1.68586 10.4136 1.60415 10.3972 1.52393C9.70609 1.59144 9.06696 1.92086 8.61096 2.44461C8.20472 2.89908 7.96837 3.48018 7.94208 4.08918C7.94239 4.16325 7.9503 4.23708 7.9657 4.30953C8.02019 4.31983 8.07551 4.3251 8.13096 4.3253C8.44949 4.29995 8.75954 4.2101 9.04227 4.0612C9.325 3.91231 9.5745 3.70748 9.77561 3.45916Z" fill="black" fill-opacity="0.88"/>
</svg>
